_________________________  Visit us at _________________________
  
http://p2pdl.com  ____________________________  http://p2pdl.com

Texas Chainsaw 2013 BRRip 720p x264 AAC - PRiSTiNE

Genre: Horror | Thriller
Plot: A young woman travels to Texas to collect an inheritance; 
little does she know that an encounter with a chainsaw-wielding 
killer is part of the reward.
Director: John Luessenhop
Stars: Alexandra Daddario, Trey Songz, Scott Eastwood
Rated: Rated R for strong grisly violence and language throughout

Info: 
http://www.imdb.com/title/tt1572315/

General
Complete name                  : Texas Chainsaw 2013 BRRip 720p x264 AAC - PRiSTiNE.mp4
Format                         : MPEG-4
File size                      : 578 MiB
Duration                       : 1h 31mn
Overall bit rate mode          : Variable
Overall bit rate               : 882 Kbps

Video
Format                         : AVC
Format/Info                    : Advanced Video Codec
Format profile                 : High 10@L4.1
Bit rate                       : 799 Kbps
Width                          : 1 280 pixels
Height                         : 536 pixels
Display aspect ratio           : 2.40:1
Frame rate mode                : Constant
Frame rate                     : 23.976 fps
Bit depth                      : 10 bits
Stream size                    : 524 MiB (91%)
Writing library                : x264 core 130 r2273 b3065e6

Audio
Format                         : AAC
Format profile                 : HE-AAC / LC
Bit rate                       : 79.8 Kbps
Channel(s)                     : 2 channels
Channel positions              : Front: L R
Sampling rate                  : 48.0 KHz / 24.0 KHz
Stream size                    : 52.4 MiB (9%)
Language                       : English

Subtitle                       : Yes (English)
Source                         : 720p.BluRay.x264-VETO (Thanks)

Screenshots:
 
http://www.ultraimg.com/images/HNB4c.jpg 
http://www.ultraimg.com/images/hm5B1.jpg 
http://www.ultraimg.com/images/myqBF.jpg 
http://www.ultraimg.com/images/TPB4V.jpg 
http://www.ultraimg.com/images/VR4uj.jpg

----------------------------------------------------------------------------------------------------


Encoded using revolutionary 10bit encoding, which enables us to provide you more crispier 
and sharper images at small sizes, just make sure you follow our instructions without a fault.
Recommend to you to use latest version of VLC player. Install K-Lite Codec Pack or shark007 codecs
in case of any kind of problem in playback (For non-VLC Media Player users). Alternatively, install
Core AVC codecs, the fastest decoder that there is coupled with Community Center Codec Pack and play
on Windows Media Player Classic. Check sample to be sure.
Enjoy!

Encoder Notes:Looking For Early Access To Anything You Can Provide DVDScr, R5, DVDR, BluRay, Direct
Audio, Music Releases and Seedboxes. We require dedicated servers, so as to do more 
and fast releases of movies.
If You Got anything to offer please contact us at "prg@hush.com".

Face book Fan Page:   
http://www.fb.me/p2pdl